<svg xmlns="http://www.w3.org/2000/svg" version="1.1" xmlns:xlink="http://www.w3.org/1999/xlink" xmlns:svgjs="http://svgjs.dev/svgjs" width="1440" height="560" preserveAspectRatio="none" viewBox="0 0 1440 560"><g mask="url(&quot;#SvgjsMask1013&quot;)" fill="none"><path d="M76.09 80.4L141.05 117.9L141.05 192.9L76.09 230.4L11.14 192.9L11.14 117.9zM11.14 192.9L76.09 230.4L76.09 305.4L11.14 342.9L-53.81 305.4L-53.81 230.4zM76.09 305.4L141.05 342.9L141.05 417.9L76.09 455.4L11.14 417.9L11.14 342.9zM11.14 417.9L76.09 455.4L76.09 530.4L11.14 567.9L-53.81 530.4L-53.81 455.4zM270.95 -32.1L335.91 5.4L335.91 80.4L270.95 117.9L206 80.4L206 5.4zM335.91 80.4L400.86 117.9L400.86 192.9L335.91 230.4L270.95 192.9L270.95 117.9zM270.95 417.9L335.91 455.4L335.91 530.4L270.95 567.9L206 530.4L206 455.4zM400.86 -32.1L465.82 5.4L465.82 80.4L400.86 117.9L335.91 80.4L335.91 5.4zM465.82 305.4L530.77 342.9L530.77 417.9L465.82 455.4L400.86 417.9L400.86 342.9zM400.86 417.9L465.82 455.4L465.82 530.4L400.86 567.9L335.91 530.4L335.91 455.4zM660.68 192.9L725.63 230.4L725.63 305.4L660.68 342.9L595.72 305.4L595.72 230.4zM725.63 305.4L790.59 342.9L790.59 417.9L725.63 455.4L660.68 417.9L660.68 342.9zM725.63 530.4L790.59 567.9L790.59 642.9L725.63 680.4L660.68 642.9L660.68 567.9zM790.58 417.9L855.54 455.4L855.54 530.4L790.58 567.9L725.63 530.4L725.63 455.4zM985.45 80.4L1050.4 117.9L1050.4 192.9L985.45 230.4L920.49 192.9L920.49 117.9zM985.45 530.4L1050.4 567.9L1050.4 642.9L985.45 680.4L920.49 642.9L920.49 567.9zM1115.35 530.4L1180.31 567.9L1180.31 642.9L1115.35 680.4L1050.4 642.9L1050.4 567.9zM1245.26 80.4L1310.21 117.9L1310.21 192.9L1245.26 230.4L1180.31 192.9L1180.31 117.9zM1180.31 192.9L1245.26 230.4L1245.26 305.4L1180.31 342.9L1115.35 305.4L1115.35 230.4zM1310.22 192.9L1375.17 230.4L1375.17 305.4L1310.22 342.9L1245.26 305.4L1245.26 230.4zM1375.17 305.4L1440.12 342.9L1440.12 417.9L1375.17 455.4L1310.22 417.9L1310.22 342.9zM1375.17 530.4L1440.12 567.9L1440.12 642.9L1375.17 680.4L1310.22 642.9L1310.22 567.9zM1505.08 80.4L1570.03 117.9L1570.03 192.9L1505.08 230.4L1440.12 192.9L1440.12 117.9zM1505.08 305.4L1570.03 342.9L1570.03 417.9L1505.08 455.4L1440.12 417.9L1440.12 342.9zM1440.12 417.9L1505.08 455.4L1505.08 530.4L1440.12 567.9L1375.17 530.4L1375.17 455.4z" stroke="rgba(0, 0, 70, 1)" stroke-width="2"></path><path d="M68.59 80.4 a7.5 7.5 0 1 0 15 0 a7.5 7.5 0 1 0 -15 0zM133.55 117.9 a7.5 7.5 0 1 0 15 0 a7.5 7.5 0 1 0 -15 0zM133.55 192.9 a7.5 7.5 0 1 0 15 0 a7.5 7.5 0 1 0 -15 0zM68.59 230.4 a7.5 7.5 0 1 0 15 0 a7.5 7.5 0 1 0 -15 0zM3.64 192.9 a7.5 7.5 0 1 0 15 0 a7.5 7.5 0 1 0 -15 0zM3.64 117.9 a7.5 7.5 0 1 0 15 0 a7.5 7.5 0 1 0 -15 0zM68.59 305.4 a7.5 7.5 0 1 0 15 0 a7.5 7.5 0 1 0 -15 0zM3.64 342.9 a7.5 7.5 0 1 0 15 0 a7.5 7.5 0 1 0 -15 0zM-61.31 305.4 a7.5 7.5 0 1 0 15 0 a7.5 7.5 0 1 0 -15 0zM-61.31 230.4 a7.5 7.5 0 1 0 15 0 a7.5 7.5 0 1 0 -15 0zM133.55 342.9 a7.5 7.5 0 1 0 15 0 a7.5 7.5 0 1 0 -15 0zM133.55 417.9 a7.5 7.5 0 1 0 15 0 a7.5 7.5 0 1 0 -15 0zM68.59 455.4 a7.5 7.5 0 1 0 15 0 a7.5 7.5 0 1 0 -15 0zM3.64 417.9 a7.5 7.5 0 1 0 15 0 a7.5 7.5 0 1 0 -15 0zM68.59 530.4 a7.5 7.5 0 1 0 15 0 a7.5 7.5 0 1 0 -15 0zM3.64 567.9 a7.5 7.5 0 1 0 15 0 a7.5 7.5 0 1 0 -15 0zM-61.31 530.4 a7.5 7.5 0 1 0 15 0 a7.5 7.5 0 1 0 -15 0zM-61.31 455.4 a7.5 7.5 0 1 0 15 0 a7.5 7.5 0 1 0 -15 0zM263.45 -32.1 a7.5 7.5 0 1 0 15 0 a7.5 7.5 0 1 0 -15 0zM328.41 5.4 a7.5 7.5 0 1 0 15 0 a7.5 7.5 0 1 0 -15 0zM328.41 80.4 a7.5 7.5 0 1 0 15 0 a7.5 7.5 0 1 0 -15 0zM263.45 117.9 a7.5 7.5 0 1 0 15 0 a7.5 7.5 0 1 0 -15 0zM198.5 80.4 a7.5 7.5 0 1 0 15 0 a7.5 7.5 0 1 0 -15 0zM198.5 5.4 a7.5 7.5 0 1 0 15 0 a7.5 7.5 0 1 0 -15 0zM393.36 117.9 a7.5 7.5 0 1 0 15 0 a7.5 7.5 0 1 0 -15 0zM393.36 192.9 a7.5 7.5 0 1 0 15 0 a7.5 7.5 0 1 0 -15 0zM328.41 230.4 a7.5 7.5 0 1 0 15 0 a7.5 7.5 0 1 0 -15 0zM263.45 192.9 a7.5 7.5 0 1 0 15 0 a7.5 7.5 0 1 0 -15 0zM263.45 417.9 a7.5 7.5 0 1 0 15 0 a7.5 7.5 0 1 0 -15 0zM328.41 455.4 a7.5 7.5 0 1 0 15 0 a7.5 7.5 0 1 0 -15 0zM328.41 530.4 a7.5 7.5 0 1 0 15 0 a7.5 7.5 0 1 0 -15 0zM263.45 567.9 a7.5 7.5 0 1 0 15 0 a7.5 7.5 0 1 0 -15 0zM198.5 530.4 a7.5 7.5 0 1 0 15 0 a7.5 7.5 0 1 0 -15 0zM198.5 455.4 a7.5 7.5 0 1 0 15 0 a7.5 7.5 0 1 0 -15 0zM393.36 -32.1 a7.5 7.5 0 1 0 15 0 a7.5 7.5 0 1 0 -15 0zM458.32 5.4 a7.5 7.5 0 1 0 15 0 a7.5 7.5 0 1 0 -15 0zM458.32 80.4 a7.5 7.5 0 1 0 15 0 a7.5 7.5 0 1 0 -15 0zM458.32 305.4 a7.5 7.5 0 1 0 15 0 a7.5 7.5 0 1 0 -15 0zM523.27 342.9 a7.5 7.5 0 1 0 15 0 a7.5 7.5 0 1 0 -15 0zM523.27 417.9 a7.5 7.5 0 1 0 15 0 a7.5 7.5 0 1 0 -15 0zM458.32 455.4 a7.5 7.5 0 1 0 15 0 a7.5 7.5 0 1 0 -15 0zM393.36 417.9 a7.5 7.5 0 1 0 15 0 a7.5 7.5 0 1 0 -15 0zM393.36 342.9 a7.5 7.5 0 1 0 15 0 a7.5 7.5 0 1 0 -15 0zM458.32 530.4 a7.5 7.5 0 1 0 15 0 a7.5 7.5 0 1 0 -15 0zM393.36 567.9 a7.5 7.5 0 1 0 15 0 a7.5 7.5 0 1 0 -15 0zM653.18 192.9 a7.5 7.5 0 1 0 15 0 a7.5 7.5 0 1 0 -15 0zM718.13 230.4 a7.5 7.5 0 1 0 15 0 a7.5 7.5 0 1 0 -15 0zM718.13 305.4 a7.5 7.5 0 1 0 15 0 a7.5 7.5 0 1 0 -15 0zM653.18 342.9 a7.5 7.5 0 1 0 15 0 a7.5 7.5 0 1 0 -15 0zM588.22 305.4 a7.5 7.5 0 1 0 15 0 a7.5 7.5 0 1 0 -15 0zM588.22 230.4 a7.5 7.5 0 1 0 15 0 a7.5 7.5 0 1 0 -15 0zM783.09 342.9 a7.5 7.5 0 1 0 15 0 a7.5 7.5 0 1 0 -15 0zM783.09 417.9 a7.5 7.5 0 1 0 15 0 a7.5 7.5 0 1 0 -15 0zM718.13 455.4 a7.5 7.5 0 1 0 15 0 a7.5 7.5 0 1 0 -15 0zM653.18 417.9 a7.5 7.5 0 1 0 15 0 a7.5 7.5 0 1 0 -15 0zM718.13 530.4 a7.5 7.5 0 1 0 15 0 a7.5 7.5 0 1 0 -15 0zM783.09 567.9 a7.5 7.5 0 1 0 15 0 a7.5 7.5 0 1 0 -15 0zM783.09 642.9 a7.5 7.5 0 1 0 15 0 a7.5 7.5 0 1 0 -15 0zM718.13 680.4 a7.5 7.5 0 1 0 15 0 a7.5 7.5 0 1 0 -15 0zM653.18 642.9 a7.5 7.5 0 1 0 15 0 a7.5 7.5 0 1 0 -15 0zM653.18 567.9 a7.5 7.5 0 1 0 15 0 a7.5 7.5 0 1 0 -15 0zM783.08 417.9 a7.5 7.5 0 1 0 15 0 a7.5 7.5 0 1 0 -15 0zM848.04 455.4 a7.5 7.5 0 1 0 15 0 a7.5 7.5 0 1 0 -15 0zM848.04 530.4 a7.5 7.5 0 1 0 15 0 a7.5 7.5 0 1 0 -15 0zM783.08 567.9 a7.5 7.5 0 1 0 15 0 a7.5 7.5 0 1 0 -15 0zM977.95 80.4 a7.5 7.5 0 1 0 15 0 a7.5 7.5 0 1 0 -15 0zM1042.9 117.9 a7.5 7.5 0 1 0 15 0 a7.5 7.5 0 1 0 -15 0zM1042.9 192.9 a7.5 7.5 0 1 0 15 0 a7.5 7.5 0 1 0 -15 0zM977.95 230.4 a7.5 7.5 0 1 0 15 0 a7.5 7.5 0 1 0 -15 0zM912.99 192.9 a7.5 7.5 0 1 0 15 0 a7.5 7.5 0 1 0 -15 0zM912.99 117.9 a7.5 7.5 0 1 0 15 0 a7.5 7.5 0 1 0 -15 0zM977.95 530.4 a7.5 7.5 0 1 0 15 0 a7.5 7.5 0 1 0 -15 0zM1042.9 567.9 a7.5 7.5 0 1 0 15 0 a7.5 7.5 0 1 0 -15 0zM1042.9 642.9 a7.5 7.5 0 1 0 15 0 a7.5 7.5 0 1 0 -15 0zM977.95 680.4 a7.5 7.5 0 1 0 15 0 a7.5 7.5 0 1 0 -15 0zM912.99 642.9 a7.5 7.5 0 1 0 15 0 a7.5 7.5 0 1 0 -15 0zM912.99 567.9 a7.5 7.5 0 1 0 15 0 a7.5 7.5 0 1 0 -15 0zM1107.85 530.4 a7.5 7.5 0 1 0 15 0 a7.5 7.5 0 1 0 -15 0zM1172.81 567.9 a7.5 7.5 0 1 0 15 0 a7.5 7.5 0 1 0 -15 0zM1172.81 642.9 a7.5 7.5 0 1 0 15 0 a7.5 7.5 0 1 0 -15 0zM1107.85 680.4 a7.5 7.5 0 1 0 15 0 a7.5 7.5 0 1 0 -15 0zM1237.76 80.4 a7.5 7.5 0 1 0 15 0 a7.5 7.5 0 1 0 -15 0zM1302.71 117.9 a7.5 7.5 0 1 0 15 0 a7.5 7.5 0 1 0 -15 0zM1302.71 192.9 a7.5 7.5 0 1 0 15 0 a7.5 7.5 0 1 0 -15 0zM1237.76 230.4 a7.5 7.5 0 1 0 15 0 a7.5 7.5 0 1 0 -15 0zM1172.81 192.9 a7.5 7.5 0 1 0 15 0 a7.5 7.5 0 1 0 -15 0zM1172.81 117.9 a7.5 7.5 0 1 0 15 0 a7.5 7.5 0 1 0 -15 0zM1237.76 305.4 a7.5 7.5 0 1 0 15 0 a7.5 7.5 0 1 0 -15 0zM1172.81 342.9 a7.5 7.5 0 1 0 15 0 a7.5 7.5 0 1 0 -15 0zM1107.85 305.4 a7.5 7.5 0 1 0 15 0 a7.5 7.5 0 1 0 -15 0zM1107.85 230.4 a7.5 7.5 0 1 0 15 0 a7.5 7.5 0 1 0 -15 0zM1302.72 192.9 a7.5 7.5 0 1 0 15 0 a7.5 7.5 0 1 0 -15 0zM1367.67 230.4 a7.5 7.5 0 1 0 15 0 a7.5 7.5 0 1 0 -15 0zM1367.67 305.4 a7.5 7.5 0 1 0 15 0 a7.5 7.5 0 1 0 -15 0zM1302.72 342.9 a7.5 7.5 0 1 0 15 0 a7.5 7.5 0 1 0 -15 0zM1432.62 342.9 a7.5 7.5 0 1 0 15 0 a7.5 7.5 0 1 0 -15 0zM1432.62 417.9 a7.5 7.5 0 1 0 15 0 a7.5 7.5 0 1 0 -15 0zM1367.67 455.4 a7.5 7.5 0 1 0 15 0 a7.5 7.5 0 1 0 -15 0zM1302.72 417.9 a7.5 7.5 0 1 0 15 0 a7.5 7.5 0 1 0 -15 0zM1367.67 530.4 a7.5 7.5 0 1 0 15 0 a7.5 7.5 0 1 0 -15 0zM1432.62 567.9 a7.5 7.5 0 1 0 15 0 a7.5 7.5 0 1 0 -15 0zM1432.62 642.9 a7.5 7.5 0 1 0 15 0 a7.5 7.5 0 1 0 -15 0zM1367.67 680.4 a7.5 7.5 0 1 0 15 0 a7.5 7.5 0 1 0 -15 0zM1302.72 642.9 a7.5 7.5 0 1 0 15 0 a7.5 7.5 0 1 0 -15 0zM1302.72 567.9 a7.5 7.5 0 1 0 15 0 a7.5 7.5 0 1 0 -15 0zM1497.58 80.4 a7.5 7.5 0 1 0 15 0 a7.5 7.5 0 1 0 -15 0zM1562.53 117.9 a7.5 7.5 0 1 0 15 0 a7.5 7.5 0 1 0 -15 0zM1562.53 192.9 a7.5 7.5 0 1 0 15 0 a7.5 7.5 0 1 0 -15 0zM1497.58 230.4 a7.5 7.5 0 1 0 15 0 a7.5 7.5 0 1 0 -15 0zM1432.62 192.9 a7.5 7.5 0 1 0 15 0 a7.5 7.5 0 1 0 -15 0zM1432.62 117.9 a7.5 7.5 0 1 0 15 0 a7.5 7.5 0 1 0 -15 0zM1497.58 305.4 a7.5 7.5 0 1 0 15 0 a7.5 7.5 0 1 0 -15 0zM1562.53 342.9 a7.5 7.5 0 1 0 15 0 a7.5 7.5 0 1 0 -15 0zM1562.53 417.9 a7.5 7.5 0 1 0 15 0 a7.5 7.5 0 1 0 -15 0zM1497.58 455.4 a7.5 7.5 0 1 0 15 0 a7.5 7.5 0 1 0 -15 0zM1497.58 530.4 a7.5 7.5 0 1 0 15 0 a7.5 7.5 0 1 0 -15 0z" fill="rgba(0, 0, 70, 1)"></path><path d="M93.21 63.38L136.51 88.38L136.51 138.38L93.21 163.38L49.91 138.38L49.91 88.38zM179.82 213.38L223.12 238.38L223.12 288.38L179.82 313.38L136.51 288.38L136.51 238.38zM179.82 363.38L223.12 388.38L223.12 438.38L179.82 463.38L136.51 438.38L136.51 388.38zM223.12 -11.62L266.42 13.38L266.42 63.38L223.12 88.38L179.82 63.38L179.82 13.38zM266.42 363.38L309.73 388.38L309.73 438.38L266.42 463.38L223.12 438.38L223.12 388.38zM353.03 63.38L396.33 88.38L396.33 138.38L353.03 163.38L309.73 138.38L309.73 88.38zM309.73 288.38L353.03 313.38L353.03 363.38L309.73 388.38L266.42 363.38L266.42 313.38zM353.03 363.38L396.33 388.38L396.33 438.38L353.03 463.38L309.73 438.38L309.73 388.38zM353.03 513.38L396.33 538.38L396.33 588.38L353.03 613.38L309.73 588.38L309.73 538.38zM396.33 -11.62L439.63 13.38L439.63 63.38L396.33 88.38L353.03 63.38L353.03 13.38zM439.63 63.38L482.94 88.38L482.94 138.38L439.63 163.38L396.33 138.38L396.33 88.38zM396.33 288.38L439.63 313.38L439.63 363.38L396.33 388.38L353.03 363.38L353.03 313.38zM439.63 363.38L482.94 388.38L482.94 438.38L439.63 463.38L396.33 438.38L396.33 388.38zM482.94 138.38L526.24 163.38L526.24 213.38L482.94 238.38L439.63 213.38L439.63 163.38zM526.24 213.38L569.54 238.38L569.54 288.38L526.24 313.38L482.94 288.38L482.94 238.38zM526.24 363.38L569.54 388.38L569.54 438.38L526.24 463.38L482.94 438.38L482.94 388.38zM482.94 438.38L526.24 463.38L526.24 513.38L482.94 538.38L439.63 513.38L439.63 463.38zM612.84 63.38L656.14 88.38L656.14 138.38L612.84 163.38L569.54 138.38L569.54 88.38zM612.84 513.38L656.14 538.38L656.14 588.38L612.84 613.38L569.54 588.38L569.54 538.38zM699.45 363.38L742.75 388.38L742.75 438.38L699.45 463.38L656.14 438.38L656.14 388.38zM656.14 438.38L699.45 463.38L699.45 513.38L656.14 538.38L612.84 513.38L612.84 463.38zM699.45 513.38L742.75 538.38L742.75 588.38L699.45 613.38L656.14 588.38L656.14 538.38zM829.36 138.38L872.66 163.38L872.66 213.38L829.36 238.38L786.05 213.38L786.05 163.38zM872.66 213.38L915.96 238.38L915.96 288.38L872.66 313.38L829.36 288.38L829.36 238.38zM829.36 288.38L872.66 313.38L872.66 363.38L829.36 388.38L786.05 363.38L786.05 313.38zM829.36 438.38L872.66 463.38L872.66 513.38L829.36 538.38L786.05 513.38L786.05 463.38zM915.96 -11.62L959.26 13.38L959.26 63.38L915.96 88.38L872.66 63.38L872.66 13.38zM959.26 63.38L1002.57 88.38L1002.57 138.38L959.26 163.38L915.96 138.38L915.96 88.38zM915.96 438.38L959.26 463.38L959.26 513.38L915.96 538.38L872.66 513.38L872.66 463.38zM959.26 513.38L1002.57 538.38L1002.57 588.38L959.26 613.38L915.96 588.38L915.96 538.38zM1002.57 138.38L1045.87 163.38L1045.87 213.38L1002.57 238.38L959.26 213.38L959.26 163.38zM1002.57 288.38L1045.87 313.38L1045.87 363.38L1002.57 388.38L959.26 363.38L959.26 313.38zM1132.47 363.38L1175.78 388.38L1175.78 438.38L1132.47 463.38L1089.17 438.38L1089.17 388.38zM1175.78 -11.62L1219.08 13.38L1219.08 63.38L1175.78 88.38L1132.47 63.38L1132.47 13.38zM1219.08 213.38L1262.38 238.38L1262.38 288.38L1219.08 313.38L1175.78 288.38L1175.78 238.38zM1175.78 438.38L1219.08 463.38L1219.08 513.38L1175.78 538.38L1132.47 513.38L1132.47 463.38zM1262.38 -11.62L1305.68 13.38L1305.68 63.38L1262.38 88.38L1219.08 63.38L1219.08 13.38zM1305.68 63.38L1348.99 88.38L1348.99 138.38L1305.68 163.38L1262.38 138.38L1262.38 88.38zM1262.38 138.38L1305.68 163.38L1305.68 213.38L1262.38 238.38L1219.08 213.38L1219.08 163.38zM1305.68 213.38L1348.99 238.38L1348.99 288.38L1305.68 313.38L1262.38 288.38L1262.38 238.38zM1262.38 288.38L1305.68 313.38L1305.68 363.38L1262.38 388.38L1219.08 363.38L1219.08 313.38zM1305.68 363.38L1348.99 388.38L1348.99 438.38L1305.68 463.38L1262.38 438.38L1262.38 388.38zM1305.68 513.38L1348.99 538.38L1348.99 588.38L1305.68 613.38L1262.38 588.38L1262.38 538.38zM1348.99 -11.62L1392.29 13.38L1392.29 63.38L1348.99 88.38L1305.68 63.38L1305.68 13.38zM1392.29 63.38L1435.59 88.38L1435.59 138.38L1392.29 163.38L1348.99 138.38L1348.99 88.38zM1348.99 138.38L1392.29 163.38L1392.29 213.38L1348.99 238.38L1305.68 213.38L1305.68 163.38zM1478.89 63.38L1522.2 88.38L1522.2 138.38L1478.89 163.38L1435.59 138.38L1435.59 88.38zM1435.59 438.38L1478.89 463.38L1478.89 513.38L1435.59 538.38L1392.29 513.38L1392.29 463.38z" stroke="rgba(28, 181, 224, 0.9)" stroke-width="2"></path></g><defs><mask id="SvgjsMask1013"><rect width="1440" height="560" fill="#ffffff"></rect></mask></defs></svg>