<svg width="84" height="48" viewBox="0 0 84 48" fill="none" xmlns="http://www.w3.org/2000/svg">
<path d="M29.2 39.68L29.392 39.616C29.0933 38.592 28.944 37.568 28.944 36.544V3.2H34.32V48H28.944L5.52 12.032L5.328 12.096C5.62667 13.12 5.776 14.144 5.776 15.168V48H0.4V3.2H5.776L29.2 39.68ZM50.222 48H44.846V16H50.222V48ZM50.798 6.016V6.528C50.798 7.33867 50.7553 7.85067 50.67 8.064C50.6273 8.27733 50.4353 8.53333 50.094 8.832C49.7527 9.17333 48.9633 9.344 47.726 9.344H47.406C46.4673 9.344 45.8913 9.32266 45.678 9.28C45.4647 9.23733 45.2087 9.088 44.91 8.832C44.6113 8.53333 44.4193 8.27733 44.334 8.064C44.2913 7.85067 44.27 7.33867 44.27 6.528V6.016C44.27 5.20533 44.2913 4.69333 44.334 4.48C44.4193 4.26666 44.6327 4.01066 44.974 3.712C45.23 3.456 45.4647 3.30666 45.678 3.264C45.8913 3.22133 46.4673 3.2 47.406 3.2H47.662C48.942 3.2 49.774 3.37066 50.158 3.712C50.4567 4.01066 50.6273 4.26666 50.67 4.48C50.7553 4.69333 50.798 5.20533 50.798 6.016ZM58.1525 48V0.639999H63.5285V29.76H68.9045L74.6645 20.352C75.1338 19.6267 75.4752 19.136 75.6885 18.88C75.9445 18.624 76.3925 18.2613 77.0325 17.792L78.2485 16.96C78.9312 16.4907 79.4005 16.2133 79.6565 16.128C79.9552 16.0427 80.4885 16 81.2565 16H82.5365V18.496C82.5365 19.4773 82.4725 20.096 82.3445 20.352C82.2165 20.5653 81.7685 20.8853 81.0005 21.312L80.2965 21.696C79.6565 22.08 79.2298 22.4 79.0165 22.656C78.8032 22.8693 78.4405 23.3387 77.9285 24.064L73.7685 30.528C73.3845 31.1253 73.0005 31.5307 72.6165 31.744V32C73.0005 32.0853 73.4912 32.576 74.0885 33.472L83.4325 48H77.4805L68.9685 34.24H63.5285V48H58.1525Z" fill="url(#paint0_linear_6_42)"/>
<defs>
<linearGradient id="paint0_linear_6_42" x1="91" y1="82" x2="-6" y2="81.5" gradientUnits="userSpaceOnUse">
<stop stop-color="#1CB5E0"/>
<stop offset="1" stop-color="#000046"/>
</linearGradient>
</defs>
</svg>
